<svg width="234.24" xmlns="http://www.w3.org/2000/svg" height="53.853" fill="none"><g data-testid="logo hydromecanica" style="fill: rgb(0, 0, 0);"><path d="M67.177 15.878v3.519c-.022.368.012.737.101 1.095a.89.89 0 0 0 .382.391c.246.111.514.164.785.157h.402v.313h-6.135v-.313h.382c.286.014.571-.047.825-.176a.832.832 0 0 0 .342-.391c.089-.352.123-.714.1-1.076V11.83a3.67 3.67 0 0 0-.1-1.095.796.796 0 0 0-.383-.391 1.804 1.804 0 0 0-.784-.157h-.382v-.312h6.135v.312h-.443a1.714 1.714 0 0 0-.824.176.83.83 0 0 0-.342.392c-.09.351-.123.714-.101 1.075v3.226h4.144V11.83a3.053 3.053 0 0 0 0-1.095.794.794 0 0 0-.382-.391 1.808 1.808 0 0 0-.785-.157h-.382v-.312h6.035v.312h-.362a1.62 1.62 0 0 0-.825.176.772.772 0 0 0-.362.392 3.508 3.508 0 0 0-.101 1.075v7.489c-.022.368.012.737.101 1.095a.89.89 0 0 0 .382.391c.252.112.528.166.805.157h.362v.312h-6.035v-.312h.382c.286.013.571-.047.825-.176a.832.832 0 0 0 .342-.391c.067-.356.067-.72 0-1.076v-3.52l-4.104.079ZM88.722 9.875v.312a1.726 1.726 0 0 0-.906.333 8.663 8.663 0 0 0-1.368 1.955l-2.534 4.126v2.757c-.054.37-.054.745 0 1.115a.91.91 0 0 0 .362.371c.238.111.5.165.764.157h.644v.313h-6.578v-.313h.624c.279.014.558-.047.804-.176a.77.77 0 0 0 .362-.391c.09-.352.124-.714.101-1.076v-2.249l-2.756-4.888a8.014 8.014 0 0 0-1.167-1.701 1.531 1.531 0 0 0-.905-.254v-.391h5.633v.312h-.262a1.271 1.271 0 0 0-.704.137.376.376 0 0 0-.201.313c.138.536.369 1.046.684 1.506l2.112 3.793 2.012-3.441a4.373 4.373 0 0 0 .804-1.682.434.434 0 0 0-.241-.371 2.068 2.068 0 0 0-1.066-.255v-.312h3.782ZM89.144 21.353v-.313h.402c.272.019.543-.035.785-.157.172-.096.312-.238.402-.41a5.23 5.23 0 0 0 0-1.076V11.83a3.938 3.938 0 0 0 0-1.095.89.89 0 0 0-.382-.391 1.793 1.793 0 0 0-.785-.156h-.402v-.313h5.25a8.708 8.708 0 0 1 3.4.547 5.06 5.06 0 0 1 2.373 2.073c.449.812.717 1.708.786 2.627.07.92-.061 1.844-.383 2.711a4.935 4.935 0 0 1-1.026 1.662 4.592 4.592 0 0 1-1.468 1.056 7.11 7.11 0 0 1-2.012.626c-.553.075-1.111.107-1.67.097l-5.27.079Zm4.486-10.755v8.897a3.345 3.345 0 0 0 0 .86.449.449 0 0 0 .241.255c.209.089.436.129.664.117.421.026.842-.048 1.227-.215.386-.167.724-.422.986-.743a6.398 6.398 0 0 0 1.046-3.911 7.335 7.335 0 0 0-.724-3.52 2.902 2.902 0 0 0-1.449-1.388 5.676 5.676 0 0 0-1.991-.352ZM106.423 16.151v3.207c-.028.389.013.779.121 1.154a.775.775 0 0 0 .402.391c.356.117.732.164 1.107.137v.313h-6.035v-.313c.375.027.751-.02 1.106-.137a.854.854 0 0 0 .403-.391c.108-.375.149-.765.12-1.154v-7.411a3.28 3.28 0 0 0-.12-1.153.77.77 0 0 0-.403-.391 2.856 2.856 0 0 0-1.106-.137v-.391h5.451a13.101 13.101 0 0 1 3.118.273 3.214 3.214 0 0 1 1.61 1.056c.418.518.639 1.161.623 1.819.012.39-.065.778-.225 1.136-.16.359-.399.678-.7.936a3.739 3.739 0 0 1-1.67.783l2.817 3.91c.231.336.493.65.784.939.24.171.528.267.825.274v.313h-3.701l-3.782-5.202-.745.039Zm0-5.592v5.006h.483a5.947 5.947 0 0 0 1.811-.215c.399-.146.733-.423.945-.782.242-.445.36-.944.342-1.447.06-.352.033-.712-.08-1.051a2.213 2.213 0 0 0-.567-.897 2.296 2.296 0 0 0-.927-.544 2.355 2.355 0 0 0-1.081-.07h-.926ZM121.349 9.875a5.96 5.96 0 0 1 2.462.307 5.846 5.846 0 0 1 2.105 1.276 5.735 5.735 0 0 1 1.325 1.936c.301.726.446 1.505.425 2.288a6.083 6.083 0 0 1-1.308 3.911 5.793 5.793 0 0 1-2.193 1.581c-.85.35-1.774.499-2.695.433a6.19 6.19 0 0 1-2.706-.488 6.032 6.032 0 0 1-2.202-1.604 5.955 5.955 0 0 1-1.368-3.911 5.548 5.548 0 0 1 .438-2.304 5.602 5.602 0 0 1 3.369-3.143 5.702 5.702 0 0 1 2.348-.282Zm.121.528a2.686 2.686 0 0 0-1.48.435 2.576 2.576 0 0 0-.974 1.168 8.252 8.252 0 0 0-.684 3.774 7.114 7.114 0 0 0 1.046 4.302c.229.309.531.56.882.73.35.17.738.255 1.13.247a2.607 2.607 0 0 0 1.488-.41 3.554 3.554 0 0 0 1.187-1.721 9.516 9.516 0 0 0 .423-3.089 10.074 10.074 0 0 0-.443-3.383 3.182 3.182 0 0 0-1.106-1.584c-.418-.328-.932-.52-1.469-.469ZM136.798 17.461l3.118-7.586h4.788v.312h-.382a1.668 1.668 0 0 0-.825.176.83.83 0 0 0-.342.392 2.87 2.87 0 0 0-.101 1.055v7.509c-.033.368.001.739.101 1.095.076.17.211.309.382.391.246.111.514.164.785.157h.382v.312h-6.135v-.312h.382c.292.013.584-.048.845-.176a.832.832 0 0 0 .342-.391c.089-.352.123-.715.1-1.076V10.95l-4.506 10.403h-.201l-4.586-10.325v8.037a5.124 5.124 0 0 0 0 1.036c.062.281.235.527.482.685.36.201.774.29 1.187.254v.313h-4.023v-.313h.161c.247.012.494-.028.724-.118.206-.065.388-.187.523-.352.126-.184.215-.389.262-.606V11.83a3.508 3.508 0 0 0-.101-1.075.898.898 0 0 0-.382-.392 1.837 1.837 0 0 0-.805-.156h-.221v-.332h4.788l3.258 7.586ZM149.854 10.598v4.654h.241c.306.024.613-.025.894-.145a1.85 1.85 0 0 0 .715-.539 4.06 4.06 0 0 0 .644-1.956h.322v5.984h-.322a4.546 4.546 0 0 0-.442-1.604 1.977 1.977 0 0 0-.765-.841 3.172 3.172 0 0 0-1.287-.215v3.207a4.13 4.13 0 0 0 0 1.154c.06.145.165.268.301.352.225.107.475.154.725.137h.704a3.877 3.877 0 0 0 2.598-.75 3.679 3.679 0 0 0 1.425-2.242h.322l-.523 3.617h-10.058v-.313h.382c.286.011.57-.049.825-.176a.823.823 0 0 0 .342-.391 3.523 3.523 0 0 0 0-1.075V11.83c.02-.319.02-.639 0-.958a.861.861 0 0 0-.322-.45 1.55 1.55 0 0 0-.905-.235h-.383v-.312h9.817v3.363h-.201a3.845 3.845 0 0 0-.704-1.76 2.567 2.567 0 0 0-1.288-.802 7.19 7.19 0 0 0-1.81-.156l-1.247.078ZM168.682 9.699v3.91h-.342a4.256 4.256 0 0 0-1.428-2.385 3.66 3.66 0 0 0-2.354-.821 3.523 3.523 0 0 0-2.011.625 3.641 3.641 0 0 0-1.348 1.604 7.058 7.058 0 0 0-.543 2.815 9.339 9.339 0 0 0 .402 2.797c.19.764.627 1.45 1.247 1.955.634.452 1.408.68 2.193.645.7.007 1.391-.154 2.012-.469a6.975 6.975 0 0 0 2.011-1.623v.899a6.688 6.688 0 0 1-2.011 1.467 6.46 6.46 0 0 1-2.495.45 7.262 7.262 0 0 1-3.319-.743 5.23 5.23 0 0 1-2.253-2.093 5.732 5.732 0 0 1-.804-2.933 5.962 5.962 0 0 1 .885-3.089 5.95 5.95 0 0 1 2.373-2.268 6.436 6.436 0 0 1 3.179-.802c.89.006 1.771.179 2.595.508.325.151.67.256 1.025.313a.752.752 0 0 0 .483-.195c.146-.181.236-.398.262-.626l.241.059ZM177.03 18.107h-4.144l-.482 1.114a2.384 2.384 0 0 0-.242.919.755.755 0 0 0 .382.704c.373.137.769.203 1.167.196v.313h-3.922v-.313a1.71 1.71 0 0 0 1.025-.509 6.266 6.266 0 0 0 1.006-1.72l4.205-9.093h.16l4.225 9.347a5.793 5.793 0 0 0 1.006 1.681c.23.191.522.295.824.294v.313h-5.672v-.313h.221c.332.027.666-.034.965-.176a.43.43 0 0 0 .202-.391.967.967 0 0 0 0-.313 6.222 6.222 0 0 0-.262-.626l-.664-1.427Zm-.281-.626-1.75-3.911-1.811 3.911h3.561Zm1.911-11.419-2.877 2.913h-.764l1.006-2.913h2.635ZM186.847 9.875l5.793 7.078v-4.83a2.246 2.246 0 0 0-.302-1.388 1.663 1.663 0 0 0-1.387-.469v-.391h3.882v.312a2.95 2.95 0 0 0-1.006.235.921.921 0 0 0-.402.489 2.97 2.97 0 0 0-.141 1.134v9.562h-.302l-7.905-9.484v7.255c-.029.241-.002.485.078.715.08.23.211.44.384.614.309.22.683.337 1.067.333h.261v.313h-4.164v-.313a1.93 1.93 0 0 0 1.368-.391c.282-.364.411-.818.362-1.271v-8.056l-.241-.294a2 2 0 0 0-.664-.606 1.797 1.797 0 0 0-.825-.156v-.391h4.144ZM201.733 21.04v.313h-6.035v-.313h.382c.286.014.571-.047.825-.176a.832.832 0 0 0 .342-.391c.089-.352.123-.714.1-1.076V11.83a3.605 3.605 0 0 0-.1-1.095.794.794 0 0 0-.382-.391 1.736 1.736 0 0 0-.785-.157h-.382v-.312h6.035v.312h-.403a1.631 1.631 0 0 0-.804.176.772.772 0 0 0-.362.392c-.09.351-.124.714-.101 1.075v7.489c-.022.368.012.737.101 1.095a.848.848 0 0 0 .402.391c.238.113.5.166.764.157l.403.078ZM213.963 9.699v3.91h-.342a4.233 4.233 0 0 0-1.408-2.385 3.744 3.744 0 0 0-2.353-.821 3.592 3.592 0 0 0-2.012.625 3.601 3.601 0 0 0-1.328 1.604 7.058 7.058 0 0 0-.543 2.815 8.735 8.735 0 0 0 .402 2.797 3.643 3.643 0 0 0 1.228 1.955c.642.45 1.421.677 2.212.645.7.002 1.389-.159 2.012-.469a7.227 7.227 0 0 0 2.011-1.623v.899a6.875 6.875 0 0 1-2.011 1.467 6.498 6.498 0 0 1-2.615.489 7.342 7.342 0 0 1-3.339-.743 5.345 5.345 0 0 1-2.253-2.092 5.832 5.832 0 0 1-.785-2.933 6.151 6.151 0 0 1 .889-3.096 6.37 6.37 0 0 1 2.35-2.262 6.502 6.502 0 0 1 3.178-.802c.897.008 1.784.18 2.615.508.318.152.657.258 1.006.313a.754.754 0 0 0 .483-.195c.152-.177.244-.396.261-.626l.342.02ZM222.311 18.107h-4.144l-.503 1.114a2.4 2.4 0 0 0-.241.919.762.762 0 0 0 .101.406.797.797 0 0 0 .301.298c.366.135.756.202 1.147.196v.313h-3.902v-.313c.397-.051.765-.23 1.046-.509a6.848 6.848 0 0 0 1.005-1.72l4.164-9.093h.161l4.245 9.347a5.8 5.8 0 0 0 .985 1.681c.238.191.537.294.845.294v.313h-5.693v-.313h.242c.332.027.666-.034.965-.176a.465.465 0 0 0 .181-.391 1.818 1.818 0 0 0 0-.313l-.261-.626-.644-1.427Zm-.302-.626-1.75-3.911-1.79 3.911h3.54ZM69.149 37.426v.293h-6.437v-.293h.402c.299.012.596-.048.865-.176a.711.711 0 0 0 .362-.391 3.09 3.09 0 0 0 .101-1.017v-7.196a3.417 3.417 0 0 0-.101-1.056.796.796 0 0 0-.402-.352 1.657 1.657 0 0 0-.825-.176h-.402v-.293h6.437v.293h-.403a1.78 1.78 0 0 0-.865.176.918.918 0 0 0-.382.391 3.172 3.172 0 0 0-.1 1.017v7.196c-.022.355.012.711.1 1.056.106.157.251.285.423.371.258.115.541.168.824.157h.403ZM79.488 26.769l6.035 6.805v-4.713a2.062 2.062 0 0 0-.302-1.329 2.02 2.02 0 0 0-.686-.378 2.091 2.091 0 0 0-.782-.092v-.293h4.023v.293c-.36.02-.714.099-1.046.235a.98.98 0 0 0-.422.469 2.81 2.81 0 0 0-.141 1.095v9.112h-.322l-8.328-9.112v6.961A1.415 1.415 0 0 0 78 37.093c.333.218.725.334 1.126.333h.282v.293h-4.365v-.293c.5.052 1.003-.081 1.408-.372a1.585 1.585 0 0 0 .402-1.232v-7.821l-.261-.274a2.453 2.453 0 0 0-.684-.586 2.83 2.83 0 0 0-.865-.157v-.293l4.445.078ZM93.831 37.719v-.293h.402c.284.013.567-.04.825-.157.178-.095.325-.237.423-.41.054-.337.054-.68 0-1.017v-7.196a3.448 3.448 0 0 0-.101-1.056.796.796 0 0 0-.402-.352 1.657 1.657 0 0 0-.825-.176h-.402v-.293h5.511a9.986 9.986 0 0 1 3.561.528 5.243 5.243 0 0 1 2.494 1.955 5.722 5.722 0 0 1 .423 5.123 4.974 4.974 0 0 1-1.087 1.604 5.464 5.464 0 0 1-1.529 1.017 9.009 9.009 0 0 1-2.112.586 9.945 9.945 0 0 1-1.75.098l-5.431.039Zm4.747-10.246v8.545a2.755 2.755 0 0 0 0 .821.357.357 0 0 0 .242.235 1.4 1.4 0 0 0 .704.137 2.977 2.977 0 0 0 2.333-.919 5.742 5.742 0 0 0 1.086-3.911 6.696 6.696 0 0 0-.744-3.363 3.028 3.028 0 0 0-1.529-1.35 6.977 6.977 0 0 0-2.092-.195ZM112.659 26.769h6.357v.293h-.322a2.77 2.77 0 0 0-.986.137.997.997 0 0 0-.382.372 4.244 4.244 0 0 0-.1 1.173v5.358c-.046.66.036 1.324.241 1.955.191.333.477.605.825.782.446.227.945.335 1.448.313a3.602 3.602 0 0 0 1.71-.391 2.694 2.694 0 0 0 1.046-1.115 5.85 5.85 0 0 0 .342-2.444v-4.458a2.641 2.641 0 0 0-.161-1.056.932.932 0 0 0-.442-.43 2.934 2.934 0 0 0-1.147-.196v-.293h4.265v.293h-.262c-.3-.005-.598.063-.865.196a1.128 1.128 0 0 0-.503.547c-.099.303-.14.622-.121.939v4.165a9.278 9.278 0 0 1-.281 2.776 3.272 3.272 0 0 1-1.388 1.584 5.636 5.636 0 0 1-3.038.704 6.422 6.422 0 0 1-2.474-.371 3.51 3.51 0 0 1-1.67-1.33 4.157 4.157 0 0 1-.482-2.17v-5.358a3.32 3.32 0 0 0-.121-1.173.875.875 0 0 0-.422-.372 2.645 2.645 0 0 0-1.067-.137v-.293ZM139.776 26.515l.1 3.656h-.382a3.669 3.669 0 0 0-1.287-2.209 3.517 3.517 0 0 0-2.233-.841 2.258 2.258 0 0 0-1.469.45 1.27 1.27 0 0 0-.543 1.016 1.21 1.21 0 0 0 .181.646c.234.295.52.546.845.743.302.176.945.489 2.012.938a8.676 8.676 0 0 1 2.916 1.799c.504.533.778 1.233.765 1.956a2.932 2.932 0 0 1-.323 1.318c-.209.41-.511.768-.884 1.048a4.65 4.65 0 0 1-3.058.977 4.87 4.87 0 0 1-1.106 0 10.037 10.037 0 0 1-1.308-.391 1.87 1.87 0 0 0-.704-.156.883.883 0 0 0-.503.156c-.19.116-.338.287-.422.489h-.342v-4.282h.342a4.599 4.599 0 0 0 1.529 2.679c.683.572 1.552.89 2.454.899a2.475 2.475 0 0 0 1.629-.489c.185-.13.335-.301.44-.497.105-.197.161-.415.164-.637a1.516 1.516 0 0 0-.222-.762 2.847 2.847 0 0 0-.704-.685 11.97 11.97 0 0 0-1.689-.86 15.333 15.333 0 0 1-2.414-1.252 3.968 3.968 0 0 1-1.127-1.153 2.572 2.572 0 0 1-.402-1.408 2.83 2.83 0 0 1 .287-1.233c.187-.385.46-.725.799-.996a4.095 4.095 0 0 1 2.736-.919c.386.004.771.05 1.147.137a5.07 5.07 0 0 1 1.046.352 2.9 2.9 0 0 0 .865.273.43.43 0 0 0 .362-.136c.143-.182.234-.399.261-.626h.242ZM158.403 26.769v2.972h-.322a5.135 5.135 0 0 0-.644-1.486 2.467 2.467 0 0 0-.985-.704 3.312 3.312 0 0 0-1.207-.156h-.926v8.447c-.03.356.011.715.121 1.056.092.161.232.29.402.371.26.113.542.166.825.157h.423v.293h-6.458v-.293h.403c.292.009.582-.051.845-.176a.815.815 0 0 0 .382-.391c.089-.332.123-.675.1-1.017v-8.369h-.905a2.731 2.731 0 0 0-1.79.469 2.944 2.944 0 0 0-1.006 1.956h-.342v-3.129h11.084ZM169.306 32.733v3.07c-.028.375.012.753.12 1.114a.878.878 0 0 0 .423.372c.376.118.772.164 1.167.137v.293h-6.317v-.293a3.68 3.68 0 0 0 1.167-.137.87.87 0 0 0 .422-.372c.108-.361.149-.739.121-1.114v-7.118a3.087 3.087 0 0 0-.121-1.114.87.87 0 0 0-.422-.372 3.798 3.798 0 0 0-1.167-.137v-.293h5.733a14.25 14.25 0 0 1 3.259.274 3.331 3.331 0 0 1 1.69 1.017c.437.479.674 1.099.664 1.74 0 .377-.088.75-.259 1.089-.171.339-.42.635-.727.866a4.203 4.203 0 0 1-1.75.743l2.957 3.715c.21.375.467.723.764 1.037.26.16.558.254.865.274v.293h-3.882l-4.023-4.986-.684-.098Zm0-5.377v4.81h.503a6.345 6.345 0 0 0 1.891-.215c.409-.125.759-.389.985-.743a2.45 2.45 0 0 0 .362-1.408 2.398 2.398 0 0 0-.127-.983 2.467 2.467 0 0 0-.516-.855 3.155 3.155 0 0 0-2.133-.606h-.965ZM189.884 37.426v.293h-6.437v-.293h.423c.299.011.595-.05.865-.176a.893.893 0 0 0 .362-.391c.089-.332.123-.675.1-1.017v-7.196a3.416 3.416 0 0 0-.1-1.056.861.861 0 0 0-.423-.352 1.566 1.566 0 0 0-.804-.176h-.423v-.293h6.437v.293h-.402a1.841 1.841 0 0 0-.865.176.774.774 0 0 0-.362.391c-.099.33-.133.675-.101 1.017v7.196c-.021.355.012.711.101 1.056.092.161.232.29.402.371.259.113.542.166.825.157h.402ZM203.342 34.61h-4.345l-.523 1.056a2.207 2.207 0 0 0-.241.88c-.011.14.021.28.093.402s.179.22.309.282c.389.127.796.193 1.207.196v.293h-4.023v-.293a2.043 2.043 0 0 0 1.086-.489 6.205 6.205 0 0 0 1.046-1.662l4.405-8.721h.181l4.446 8.975a5.187 5.187 0 0 0 1.046 1.603c.244.193.55.297.865.294v.293h-6.035v-.293h.322c.345.026.692-.034 1.006-.176a.43.43 0 0 0 .201-.372.76.76 0 0 0 0-.293 3.863 3.863 0 0 0-.262-.606l-.784-1.369Zm-.302-.606-1.871-3.774-1.89 3.774h3.761ZM226.073 33.887l-.463 3.91h-10.943v-.293h.423c.298.011.595-.05.865-.176a.888.888 0 0 0 .362-.391c.089-.332.123-.675.1-1.017v-7.274a3.416 3.416 0 0 0-.1-1.056.902.902 0 0 0-.403-.352 1.711 1.711 0 0 0-.824-.176h-.423v-.293h6.618v.293h-.543a1.841 1.841 0 0 0-.865.176.872.872 0 0 0-.362.391c-.099.33-.133.675-.1 1.017v6.981c-.018.361.016.723.1 1.075a.824.824 0 0 0 .423.333c.367.047.739.047 1.106 0h1.026a3.76 3.76 0 0 0 1.649-.313 3.033 3.033 0 0 0 1.127-.958 7.351 7.351 0 0 0 .905-1.956l.322.079Z" style="fill: rgb(30, 30, 30); fill-opacity: 1;" class="fills" data-testid="svg-path"/><path d="M98.719 53.323a1.06 1.06 0 0 0 .563-.157 1.3 1.3 0 0 0 .403-.703l1.468-5.143c0-.196 0-.352.101-.43.009-.085.009-.17 0-.254a.383.383 0 0 0-.037-.211.4.4 0 0 0-.144-.161 1.596 1.596 0 0 0-.664-.137v-.195h2.957v.195c-.23.003-.453.071-.644.196a1.258 1.258 0 0 0-.342.665l-1.448 5.123a3.037 3.037 0 0 0-.121.449c-.008.085-.008.17 0 .255 0 .195 0 .332.201.391.194.069.398.108.604.117v.176h-2.917l.02-.176ZM103.004 53.499l1.005-3.5c.057-.174.104-.35.141-.528a.774.774 0 0 0 0-.215.338.338 0 0 0 0-.254.638.638 0 0 0-.382 0h-.282v-.196h.865l1.046-.215-.784 2.346c.355-.549.752-1.072 1.187-1.564a2.27 2.27 0 0 1 .668-.611c.262-.158.555-.263.861-.308.153 0 .304.033.442.098a.675.675 0 0 1 .362.665c.01.097.01.195 0 .293.007.104.007.209 0 .313l-.764 2.718v.371a.347.347 0 0 0 0 .157.213.213 0 0 0 .141 0 .536.536 0 0 0 .322-.176 5.38 5.38 0 0 0 .623-.743l.181.156c-.23.307-.479.601-.744.88a1.426 1.426 0 0 1-.905.45.762.762 0 0 1-.383-.137.543.543 0 0 1-.151-.213.508.508 0 0 1-.03-.256v-.196a1.292 1.292 0 0 1 0-.176l.745-2.757v-.372a1.103 1.103 0 0 0 0-.215.514.514 0 0 0 0-.234.347.347 0 0 0-.242 0c-.301 0-.664.254-1.126.762-.463.509-.523.685-.805 1.095a4.62 4.62 0 0 0-.462.958c-.121.313-.302.88-.564 1.702l-.965-.098ZM108.978 53.499l1.006-3.5.141-.528a.774.774 0 0 0 0-.215.362.362 0 0 0-.101-.254.536.536 0 0 0-.362 0h-.302v-.196h.885l1.047-.215-.644 2.346c.36-.55.764-1.073 1.207-1.564.175-.243.399-.45.659-.608.259-.157.548-.263.849-.311a.98.98 0 0 1 .443.098.686.686 0 0 1 .362.665c.01.097.01.195 0 .293.007.104.007.209 0 .313l-.764 2.718a1.543 1.543 0 0 0 0 .215.582.582 0 0 0 0 .156.204.204 0 0 0 0 .157.154.154 0 0 0 .06.013.154.154 0 0 0 .06-.013.526.526 0 0 0 .342-.176 7.46 7.46 0 0 0 .624-.743l.161.156a7.337 7.337 0 0 1-.744.88 1.343 1.343 0 0 1-.886.45.7.7 0 0 1-.382-.137.524.524 0 0 1-.181-.469.715.715 0 0 1 0-.196.374.374 0 0 1 0-.176l.745-2.757v-.587a.543.543 0 0 0 0-.234.281.281 0 0 0-.242 0c-.282 0-.664.254-1.106.762-.443.509-.523.685-.805 1.095a6.14 6.14 0 0 0-.483.958c-.12.313-.301.88-.543 1.702l-1.046-.098ZM119.901 48.865c.27.349.411.776.402 1.212a3.414 3.414 0 0 1-1.086 2.346c-.287.357-.649.65-1.062.859-.412.209-.867.33-1.332.354a1.683 1.683 0 0 1-1.292-.479 1.586 1.586 0 0 1-.478-1.262 3.475 3.475 0 0 1 1.066-2.366 3.29 3.29 0 0 1 1.077-.839 3.365 3.365 0 0 1 1.337-.334 1.66 1.66 0 0 1 1.368.509Zm-3.601 4.204a.863.863 0 0 0 .704.313c.631 0 1.194-.47 1.69-1.408a4.921 4.921 0 0 0 .624-2.19 1.627 1.627 0 0 0-.121-.685.706.706 0 0 0-.285-.37.743.743 0 0 0-.459-.119c-.584 0-1.147.431-1.67 1.291a4.614 4.614 0 0 0-.724 2.386c-.01.279.075.554.241.782ZM125.614 48.61c.105.158.16.341.161.528a6.022 6.022 0 0 1-1.549 2.679c-.986 1.213-1.569 1.819-1.77 1.819-.201 0-.101 0-.121-.235-.02-.235 0-.235 0-.45v-1.29c0-.606-.1-1.036-.161-1.33a4.028 4.028 0 0 0-.281-1.232.51.51 0 0 0-.523-.293h-.342v-.156l.724-.157.603-.117H122.677c.141 0 0 .215.101.41.15.646.264 1.298.342 1.956 0 .41.1.997.14 1.779l.202-.215c.428-.463.824-.953 1.186-1.466.3-.343.507-.753.604-1.193a.68.68 0 0 0-.262-.43.63.63 0 0 1-.261-.45.345.345 0 0 1 .141-.293.426.426 0 0 1 .322-.118c.169.029.32.12.422.254ZM130.361 48.591a.974.974 0 0 1 .222.332l.14-.43h.664v.235l-.583 1.955c-.121.43-.221.821-.322 1.134a7.018 7.018 0 0 0-.221.998.13.13 0 0 0 0 .117h.483v-.098l.161-.137.362-.371.14.137a6.351 6.351 0 0 1-.985 1.016c-.208.16-.46.255-.724.274a.426.426 0 0 1-.342-.156.554.554 0 0 1-.121-.372 2.61 2.61 0 0 1 0-.586c.042-.212.095-.421.161-.626l-.362.489a3.537 3.537 0 0 1-.604.625 2.639 2.639 0 0 1-.825.528 2.029 2.029 0 0 1-.563.098 1.216 1.216 0 0 1-.865-.371 1.412 1.412 0 0 1-.382-1.076 3.858 3.858 0 0 1 1.106-2.483 3.138 3.138 0 0 1 1.028-.939 3.21 3.21 0 0 1 1.346-.41.976.976 0 0 1 1.086.117Zm-.181.215a.66.66 0 0 0-.462-.176c-.644 0-1.248.469-1.791 1.408a4.484 4.484 0 0 0-.724 2.151.924.924 0 0 0 .201.665.65.65 0 0 0 .503.195c.584 0 1.147-.45 1.69-1.369.469-.672.74-1.456.784-2.268a.878.878 0 0 0-.201-.606ZM132.172 53.499l1.006-3.5c.056-.174.103-.35.14-.528a.774.774 0 0 0 0-.215.286.286 0 0 0-.1-.254.536.536 0 0 0-.362 0h-.282v-.196h.865l1.046-.215-.704 2.346c.348-.554.745-1.077 1.187-1.564.176-.243.4-.45.659-.608.259-.157.548-.263.85-.311.159 0 .317.034.462.098a.673.673 0 0 1 .276.281.647.647 0 0 1 .066.384c.01.097.01.195 0 .293.007.104.007.209 0 .313l-.764 2.718a1.543 1.543 0 0 0 0 .215c.004.052.004.104 0 .156a.347.347 0 0 0 0 .157.17.17 0 0 0 .141 0 .52.52 0 0 0 .14-.176 7.46 7.46 0 0 0 .624-.743l.161.156a5.835 5.835 0 0 1-.744.88 1.34 1.34 0 0 1-.885.45.704.704 0 0 1-.383-.137.543.543 0 0 1-.151-.213.508.508 0 0 1-.03-.256v-.196a.402.402 0 0 1 0-.176l.745-2.757v-.587a.36.36 0 0 0 0-.234.267.267 0 0 0-.222 0c-.301 0-.684.254-1.126.762-.443.509-.523.685-.805 1.095a6.23 6.23 0 0 0-.483.958c0 .313-.301.88-.543 1.702l-.784-.098ZM142.21 48.571c.086.132.148.278.181.431l.684-2.327V46.108a.433.433 0 0 0-.242 0h-.422v-.196l1.85-.293-1.166 4.086-.765 2.679a.577.577 0 0 0 0 .176.394.394 0 0 0 0 .137v.196a.227.227 0 0 0 .141 0c.094 0 .255-.098.483-.294l.503-.547.121.117v.118a3.234 3.234 0 0 1-.564.645 1.747 1.747 0 0 1-1.066.567.7.7 0 0 1-.302 0 .52.52 0 0 1-.241-.489v-.391c0-.176 0-.352.101-.567a3.96 3.96 0 0 1-.966 1.075c-.32.268-.725.42-1.147.431a1.235 1.235 0 0 1-.885-.352 1.436 1.436 0 0 1-.31-.509 1.39 1.39 0 0 1-.072-.586 3.865 3.865 0 0 1 1.167-2.523c.264-.36.602-.663.994-.889a3.313 3.313 0 0 1 1.279-.421.91.91 0 0 1 .644.293Zm-2.897 4.322a.609.609 0 0 0 .543.254c.563 0 1.086-.43 1.609-1.31.453-.692.71-1.488.745-2.308a1.155 1.155 0 0 0-.121-.567.48.48 0 0 0-.483-.234c-.583 0-1.167.469-1.73 1.388a4.623 4.623 0 0 0-.744 2.171 1.03 1.03 0 0 0 .181.606ZM149.069 48.865c.27.349.411.776.403 1.212a3.419 3.419 0 0 1-1.087 2.346c-.286.357-.649.65-1.061.859-.413.209-.868.33-1.333.354a1.793 1.793 0 0 1-.693-.105 1.732 1.732 0 0 1-.594-.365 1.594 1.594 0 0 1-.397-.581 1.564 1.564 0 0 1-.106-.69 3.422 3.422 0 0 1 1.086-2.366 3.253 3.253 0 0 1 1.067-.836 3.334 3.334 0 0 1 1.327-.337c.256-.026.515.006.756.094.241.089.458.23.632.415Zm-3.601 4.204a.865.865 0 0 0 .705.313c.616 0 1.18-.47 1.689-1.408a4.921 4.921 0 0 0 .624-2.19 1.612 1.612 0 0 0-.121-.685.706.706 0 0 0-.285-.37.743.743 0 0 0-.459-.119c-.583 0-1.147.431-1.67 1.291a4.614 4.614 0 0 0-.724 2.386c-.01.279.075.554.241.782ZM157.598 48.708a.782.782 0 0 1 .322.587.543.543 0 0 1-.161.41.59.59 0 0 1-.382.157.431.431 0 0 1-.362-.137.398.398 0 0 1-.116-.139.391.391 0 0 1-.045-.174.638.638 0 0 1 0-.313.798.798 0 0 0 .101-.234.231.231 0 0 0-.121-.176.91.91 0 0 0-.382 0c-.34.024-.668.132-.953.313a1.98 1.98 0 0 0-.677.723 3.846 3.846 0 0 0-.684 2.171c-.026.36.073.718.282 1.016a.977.977 0 0 0 .825.352c.314.001.622-.087.885-.254a2.61 2.61 0 0 0 .764-.645l.181.117a4.237 4.237 0 0 1-.784.782c-.433.305-.954.47-1.489.47a1.682 1.682 0 0 1-1.267-.489 1.798 1.798 0 0 1-.377-.608 1.753 1.753 0 0 1-.106-.702 3.337 3.337 0 0 1 1.066-2.366 3.17 3.17 0 0 1 1.04-.775 3.255 3.255 0 0 1 1.274-.301c.198-.054.407-.063.609-.026.203.037.393.12.557.241ZM163.311 48.865c.27.349.411.776.403 1.212a3.419 3.419 0 0 1-1.087 2.346c-.286.357-.648.65-1.061.859-.413.209-.868.33-1.332.354a1.683 1.683 0 0 1-1.293-.479 1.601 1.601 0 0 1-.478-1.262 3.423 3.423 0 0 1 1.087-2.366 3.183 3.183 0 0 1 1.064-.842 3.287 3.287 0 0 1 1.329-.331 1.66 1.66 0 0 1 1.368.509Zm-3.6 4.204a.857.857 0 0 0 .314.237c.122.054.255.08.39.076.643 0 1.186-.47 1.689-1.408a4.921 4.921 0 0 0 .624-2.19 2.073 2.073 0 0 0-.101-.685.73.73 0 0 0-.287-.366.767.767 0 0 0-.457-.123c-.603 0-1.167.431-1.69 1.291a4.614 4.614 0 0 0-.724 2.386c-.01.279.075.554.242.782ZM164.317 53.499l1.006-3.5c.056-.174.103-.35.141-.528a.774.774 0 0 0 0-.215.348.348 0 0 0 0-.254.642.642 0 0 0-.383 0h-.281v-.196h.885l1.026-.215-.785 2.346c.355-.549.752-1.072 1.187-1.564a2.36 2.36 0 0 1 1.529-.919c.153 0 .304.033.442.098a.676.676 0 0 1 .363.665c.009.097.009.195 0 .293.007.104.007.209 0 .313l-.765 2.718c.006.071.006.143 0 .215v.156a.378.378 0 0 0 0 .157.213.213 0 0 0 .141 0 .477.477 0 0 0 .161-.176c.23-.229.439-.478.624-.743l.181.156a9.899 9.899 0 0 1-.745.88 1.42 1.42 0 0 1-.905.45.758.758 0 0 1-.382-.137.52.52 0 0 1-.181-.469v-.196a1.292 1.292 0 0 1 0-.176l.744-2.757v-.372a.966.966 0 0 0 0-.215.514.514 0 0 0 0-.234.345.345 0 0 0-.241 0c-.302 0-.664.254-1.127.762-.462.509-.523.685-.804 1.095a4.574 4.574 0 0 0-.463.958c-.121.313-.302.88-.563 1.702l-.805-.098ZM173.007 53.323c.206 0 .407-.054.584-.157.206-.187.347-.434.402-.703l1.468-5.143c0-.196 0-.352.101-.43.009-.085.009-.17 0-.254a.422.422 0 0 0-.046-.223.441.441 0 0 0-.155-.169 1.66 1.66 0 0 0-.745-.117v-.195h3.259v.195a1.65 1.65 0 0 0-.684.157 1.035 1.035 0 0 0-.503.704l-.643 2.248h3.681l.603-2.053v-.352a.924.924 0 0 0 0-.235.398.398 0 0 0-.076-.239.423.423 0 0 0-.205-.152 1.974 1.974 0 0 0-.564 0v-.195h2.958v.195a1.6 1.6 0 0 0-.644.176 1.336 1.336 0 0 0-.342.685l-1.448 5.123-.101.45a.232.232 0 0 0 0 .117c0 .234 0 .371.201.43.234.075.478.115.724.117v.176h-3.259v-.176c.237-.002.471-.056.684-.156a1.08 1.08 0 0 0 .34-.297c.09-.122.153-.26.183-.407l.785-2.738h-3.701l-.684 2.386V52.658c0 .209.06.346.181.411.207.094.434.141.664.137v.176l-3.018-.059ZM184.393 48.376l-1.187 4.047v.391a.265.265 0 0 0 0 .137.156.156 0 0 0 .07.016.157.157 0 0 0 .071-.016.846.846 0 0 0 .523-.332 5.67 5.67 0 0 0 .483-.567l.14.117a8.726 8.726 0 0 1-.724.861c-.231.24-.547.386-.885.41a.48.48 0 0 1-.402-.215.688.688 0 0 1-.181-.469v-.645l.824-2.914a.35.35 0 0 0 0-.137.232.232 0 0 0 0-.117.238.238 0 0 0-.06.039c-.2-.03-.403-.03-.603 0v-.176l.684-.098H184.111c.161-.332.262-.352.282-.332Zm-.563-1.428a.67.67 0 0 1-.161-.43.692.692 0 0 1 .161-.45.604.604 0 0 1 .422-.176.571.571 0 0 1 .402.176.612.612 0 0 1 .181.45.553.553 0 0 1-.181.43.553.553 0 0 1-.402.176.417.417 0 0 1-.422-.176ZM189.281 48.571c.079.134.133.279.161.431l.684-2.327a.59.59 0 0 0 0-.157.394.394 0 0 0 0-.137.359.359 0 0 0 0-.273.433.433 0 0 0-.242 0h-.422v-.196l1.83-.293-1.146 4.086-.785 2.679a.52.52 0 0 1 0 .176v.333a.193.193 0 0 0 .121 0 .826.826 0 0 0 .483-.294c.181-.17.349-.353.503-.547l.141.117v.118a3.234 3.234 0 0 1-.564.645 1.723 1.723 0 0 1-1.086.567.67.67 0 0 1-.282 0 .52.52 0 0 1-.241-.489v-.391c0-.176 0-.352.101-.567-.264.404-.59.767-.966 1.075a1.9 1.9 0 0 1-1.147.431 1.226 1.226 0 0 1-.885-.352 1.436 1.436 0 0 1-.31-.509 1.39 1.39 0 0 1-.072-.586 3.865 3.865 0 0 1 1.167-2.523c.262-.362.6-.666.992-.892a3.285 3.285 0 0 1 1.281-.418.927.927 0 0 1 .684.293Zm-2.917 4.322a.67.67 0 0 0 .563.254c.564 0 1.087-.43 1.61-1.31.447-.693.697-1.49.724-2.308a1.143 1.143 0 0 0-.101-.567.478.478 0 0 0-.483-.234c-.603 0-1.166.469-1.73 1.388a4.634 4.634 0 0 0-.744 2.171c-.002.212.054.421.161.606ZM193.465 48.376l-.603 2.209.14-.254a8.233 8.233 0 0 1 .986-1.466c.118-.18.274-.332.458-.447.184-.115.391-.189.608-.218a.539.539 0 0 1 .423.176.592.592 0 0 1 .14.41.616.616 0 0 1-.14.431.602.602 0 0 1-.423.156.524.524 0 0 1-.261 0s-.121 0-.141-.156v-.137c-.161 0-.382.215-.664.625-.29.424-.546.868-.764 1.33-.177.376-.331.761-.463 1.154l-.423 1.29h-.885l.966-3.402c0-.196.101-.372.141-.528.008-.13.008-.261 0-.391a.348.348 0 0 0 0-.254.436.436 0 0 0-.302 0h-.442v-.196h.241l.986-.195h.583l-.161-.137ZM199.983 48.591c.089.1.164.212.221.332l.141-.43h.664v.235l-.564 1.955c-.141.43-.241.821-.322 1.134-.08.313-.221.919-.221.997a.215.215 0 0 0 0 .118h.483l.121-.098.14-.137.383-.371.14.137a6.23 6.23 0 0 1-1.005 1.016 1.224 1.224 0 0 1-.704.274.403.403 0 0 1-.342-.156.559.559 0 0 1-.121-.372 2.619 2.619 0 0 1 0-.587c0-.254 0-.469.141-.625l-.342.489c-.18.227-.382.436-.604.625a2.913 2.913 0 0 1-.824.528 2.03 2.03 0 0 1-.584.098 1.122 1.122 0 0 1-.845-.371 1.458 1.458 0 0 1-.315-.498 1.406 1.406 0 0 1-.087-.578 3.862 3.862 0 0 1 1.126-2.483 3.091 3.091 0 0 1 1.017-.939 3.172 3.172 0 0 1 1.337-.41 1.013 1.013 0 0 1 .966.117Zm-.181.215a.74.74 0 0 0-.483-.176c-.644 0-1.227.469-1.791 1.408a4.505 4.505 0 0 0-.724 2.151c-.013.237.058.472.201.665a.671.671 0 0 0 .503.195c.584 0 1.147-.45 1.69-1.369a4.375 4.375 0 0 0 .785-2.268.884.884 0 0 0-.181-.606Zm1.649-2.366-.141.117-2.011 1.252h-.423l2.012-1.858.141-.098h.14a.417.417 0 0 1 .302.118.41.41 0 0 1 .141.293.353.353 0 0 1-.161.176ZM203.02 49.412c.008-.032.008-.065 0 0Zc0-.274 0-.371-.161-.41h-.543v-.157l.865-.176.925-.176v.098l-1.126 3.911a.556.556 0 0 0 0 .215.329.329 0 0 0 0 .117c0 .073.03.142.082.194.053.051.125.08.2.08.221 0 .523-.196.864-.587.34-.395.649-.813.926-1.251.256-.409.485-.833.684-1.271.12-.294.301-.743.523-1.389h.945l-1.146 4.029a.774.774 0 0 0 0 .215.454.454 0 0 0 0 .156.232.232 0 0 0 0 .117.115.115 0 0 0 .06.016.115.115 0 0 0 .06-.016.328.328 0 0 0 .181 0c.079-.066.153-.138.222-.215l.241-.254.302-.391.181.117a5.645 5.645 0 0 1-.563.743 1.591 1.591 0 0 1-1.067.626.776.776 0 0 1-.422-.137.57.57 0 0 1-.161-.43 1.818 1.818 0 0 1 0-.313v-.41c0-.157.181-.587.282-.978l.161-.548c-.38.682-.81 1.335-1.288 1.956-.17.254-.395.469-.659.631a2.2 2.2 0 0 1-.87.307.683.683 0 0 1-.342 0 .595.595 0 0 1-.237-.24.57.57 0 0 1-.064-.327v-.371a1.602 1.602 0 0 0 0-.196l.945-3.285ZM209.799 46.636a.415.415 0 0 0 0-.157.232.232 0 0 0 0-.117.232.232 0 0 0-.161-.235h-.643v-.176h1.066l.784-.176-2.011 6.805c.006.098.006.196 0 .293a.3.3 0 0 0 0 .196.14.14 0 0 0 .07.018.14.14 0 0 0 .07-.018c.141 0 .322-.137.544-.372.218-.215.413-.451.583-.704l.161.118c-.244.345-.506.678-.785.997a1.452 1.452 0 0 1-.985.469.576.576 0 0 1-.363-.117.517.517 0 0 1-.261-.509 3.643 3.643 0 0 1 0-.391v-.313l1.931-5.611ZM213.561 48.376l-1.167 4.047c-.013.13-.013.261 0 .391a.152.152 0 0 0 0 .137.144.144 0 0 0 .07.019c.025 0 .05-.007.071-.019.121 0 .302-.117.523-.332l.463-.567.161.117c-.21.311-.453.599-.725.861-.223.24-.533.387-.865.41a.51.51 0 0 1-.422-.215.673.673 0 0 1-.161-.469 1.305 1.305 0 0 1 0-.293v-.352l.825-2.914a.524.524 0 0 0 0-.137v-.117c0-.117 0-.215-.141-.235a2.108 2.108 0 0 0-.604 0v-.176l.684-.098h.946c.221-.058.322-.078.342-.058Zm-.543-1.428a.592.592 0 0 1-.181-.43.608.608 0 0 1 .181-.45.506.506 0 0 1 .402-.176.605.605 0 0 1 .422.176.692.692 0 0 1 .161.45.629.629 0 0 1-.161.43.59.59 0 0 1-.422.176.505.505 0 0 1-.212-.006c-.069-.017-.134-.048-.19-.17ZM218.932 48.708a.847.847 0 0 1 .302.587.478.478 0 0 1-.161.41.533.533 0 0 1-.383.157.482.482 0 0 1-.195-.032.478.478 0 0 1-.167-.105.39.39 0 0 1-.141-.313.637.637 0 0 1 .101-.313.81.81 0 0 0 .101-.234.231.231 0 0 0-.121-.176.945.945 0 0 0-.382 0c-.34.024-.668.132-.953.313a1.98 1.98 0 0 0-.677.723 3.833 3.833 0 0 0-.704 2.17c-.016.36.082.715.282 1.017a1.012 1.012 0 0 0 .845.352c.308.001.609-.088.865-.254a2.98 2.98 0 0 0 .784-.645l.161.117a3.29 3.29 0 0 1-.784.782 2.526 2.526 0 0 1-1.489.47 1.684 1.684 0 0 1-.678-.114 1.627 1.627 0 0 1-.569-.375 1.798 1.798 0 0 1-.377-.608 1.753 1.753 0 0 1-.106-.702c.005-.444.102-.882.286-1.289a3.3 3.3 0 0 1 .78-1.077 3.155 3.155 0 0 1 1.04-.777 3.232 3.232 0 0 1 1.274-.299 1.42 1.42 0 0 1 1.066.215ZM223.84 48.591a.971.971 0 0 1 .221.332l.141-.43h.664v.235l-.583 1.955c-.121.43-.242.821-.322 1.134-.081.313-.222.919-.222.998a.212.212 0 0 0 0 .117h.503l.101-.098a.87.87 0 0 0 .141-.137l.382-.371.141.137a6.358 6.358 0 0 1-.986 1.016c-.208.16-.46.255-.724.274a.405.405 0 0 1-.342-.156.559.559 0 0 1-.121-.372 2.61 2.61 0 0 1 0-.586c.032-.214.086-.423.161-.626l-.362.489a3.567 3.567 0 0 1-.603.625 2.65 2.65 0 0 1-.825.528 2.03 2.03 0 0 1-.583.098 1.19 1.19 0 0 1-.845-.371 1.434 1.434 0 0 1-.383-1.076 3.859 3.859 0 0 1 1.107-2.483 3.128 3.128 0 0 1 1.028-.939 3.21 3.21 0 0 1 1.346-.41.989.989 0 0 1 .965.117Zm-.181.215a.692.692 0 0 0-.483-.176c-.623 0-1.227.469-1.77 1.408a4.484 4.484 0 0 0-.724 2.151.92.92 0 0 0 .201.665.636.636 0 0 0 .483.195c.603 0 1.167-.45 1.71-1.369.469-.672.74-1.456.784-2.268a.882.882 0 0 0-.201-.606Z" style="fill: rgb(128, 129, 129);" class="fills" data-testid="svg-path"/><g data-testid="svg-path"><path d="M229.915 47.848c2.389 0 4.325-1.882 4.325-4.204s-1.936-4.204-4.325-4.204c-2.389 0-4.325 1.882-4.325 4.204s1.936 4.204 4.325 4.204Z" fill="none" style="fill: none;" class="fills"/><g fill="none" stroke-miterlimit="10" class="strokes"><path d="M229.915 47.848c2.389 0 4.325-1.882 4.325-4.204s-1.936-4.204-4.325-4.204c-2.389 0-4.325 1.882-4.325 4.204s1.936 4.204 4.325 4.204Z" style="fill: none; stroke-width: 1; stroke: rgb(30, 30, 30); stroke-opacity: 1;" class="stroke-shape"/></g></g><path d="M228.004 41.356h2.112c.297-.01.592.043.865.156.209.093.383.246.498.439.116.192.167.415.146.637.011.234-.053.466-.181.665a1 1 0 0 1-.483.41c.165.06.311.161.423.294.103.172.158.367.16.567v.547a1.653 1.653 0 0 0 0 .372.41.41 0 0 0 .202.293v.098h-.785v-.157a2.953 2.953 0 0 1 0-.352v-.762a.584.584 0 0 0-.071-.34.616.616 0 0 0-.251-.247 1.342 1.342 0 0 0-.543 0h-1.408v1.956h-.624l-.06-4.576Zm2.012 2.073a1.41 1.41 0 0 0 .684-.157.742.742 0 0 0 .197-.285.717.717 0 0 0 .044-.34.667.667 0 0 0-.07-.382.692.692 0 0 0-.272-.283 1.189 1.189 0 0 0-.503-.098h-1.509v1.545h1.429Z" style="fill: rgb(30, 30, 30); fill-opacity: 1;" class="fills" data-testid="svg-path"/><g data-testid="svg-path"><path d="M10.074 35.613Za20.168 20.168 0 0 0 3.428 11.102 20.81 20.81 0 0 0 5.573 5.608H0l10.074-16.908v.198Z" style="fill: rgb(249, 215, 0); fill-opacity: 1;" class="fills"/><g class="strokes"><path d="M10.074 35.613Za20.168 20.168 0 0 0 3.428 11.102 20.81 20.81 0 0 0 5.573 5.608H0l10.074-16.908v.198Z" style="fill: none; stroke-width: 2; stroke: rgb(255, 255, 255); stroke-opacity: 1;" class="stroke-shape"/></g></g><g data-testid="svg-path"><path d="M20.416 17.934 31.089 0l10.674 17.934a21.56 21.56 0 0 0-10.674-2.819c-3.78 0-7.46.987-10.673 2.819Z" style="fill: rgb(249, 215, 0); fill-opacity: 1;" class="fills"/><g class="strokes"><path d="M20.416 17.934 31.089 0l10.674 17.934a21.56 21.56 0 0 0-10.674-2.819c-3.78 0-7.46.987-10.673 2.819Z" style="fill: none; stroke-width: 2; stroke: rgb(255, 255, 255); stroke-opacity: 1;" class="stroke-shape"/></g></g><g data-testid="svg-path"><path d="M62.261 52.401h-19.09a20.806 20.806 0 0 0 5.6-5.638 20.158 20.158 0 0 0 3.414-11.153v-.153l10.076 16.944Z" style="fill: rgb(249, 215, 0); fill-opacity: 1;" class="fills"/><g class="strokes"><path d="M62.261 52.401h-19.09a20.806 20.806 0 0 0 5.6-5.638 20.158 20.158 0 0 0 3.414-11.153v-.153l10.076 16.944Z" style="fill: none; stroke-width: 2; stroke: rgb(255, 255, 255); stroke-opacity: 1;" class="stroke-shape"/></g></g><path d="m45.171 21.705 4.848 8.153-4.848-8.153ZM17.069 21.705l-4.848 8.153 4.848-8.153Z" style="fill: rgb(255, 255, 255);" class="fills" data-testid="svg-path"/><g data-testid="svg-path"><path d="M49.159 30.37Zl.471.779c.368 1.459.555 2.955.555 4.456a18.154 18.154 0 0 1-3.101 10.057 18.963 18.963 0 0 1-8.057 6.739H23.094a18.95 18.95 0 0 1-8.011-6.752 18.155 18.155 0 0 1-3.069-10.044v-.004c-.009-1.502.178-3 .556-4.457l.452-.779 4.775-8.03c3.561-3.344 8.326-5.22 13.292-5.22 4.967 0 9.732 1.876 13.293 5.22l4.777 8.035Z" style="fill: rgb(255, 255, 255);" class="fills"/><g class="strokes"><path d="M49.159 30.37Zl.471.779c.368 1.459.555 2.955.555 4.456a18.154 18.154 0 0 1-3.101 10.057 18.963 18.963 0 0 1-8.057 6.739H23.094a18.95 18.95 0 0 1-8.011-6.752 18.155 18.155 0 0 1-3.069-10.044v-.004c-.009-1.502.178-3 .556-4.457l.452-.779 4.775-8.03c3.561-3.344 8.326-5.22 13.292-5.22 4.967 0 9.732 1.876 13.293 5.22l4.777 8.035Z" style="fill: none; stroke-width: 2; stroke: rgb(255, 255, 255); stroke-opacity: 1;" class="stroke-shape"/></g></g><path d="M14.554 39.714c.318.003.633-.057.926-.176.154-.103.277-.244.355-.41a.974.974 0 0 0 .087-.529v-7.685a.953.953 0 0 0-.077-.502.98.98 0 0 0-.325-.397 2.45 2.45 0 0 0-.966-.215v-.372h5.572v.411a2.474 2.474 0 0 0-.985.176.982.982 0 0 0-.371.404.952.952 0 0 0-.092.535v3.285h3.882v-3.325a.914.914 0 0 0-.082-.522.957.957 0 0 0-.36-.397c-.318-.133-.66-.2-1.006-.195v-.372h5.552v.411a2.792 2.792 0 0 0-.986.195.994.994 0 0 0-.353.4.953.953 0 0 0-.089.52v7.684a.926.926 0 0 0 .106.543.965.965 0 0 0 .397.396c.292.122.607.182.925.176v.41h-5.552v-.41c.34.012.678-.055.986-.196a.976.976 0 0 0 .368-.394.936.936 0 0 0 .094-.525v-3.696h-3.882v3.657a.978.978 0 0 0 .098.547c.086.17.219.312.385.411.311.101.637.154.965.157v.41h-5.511l-.061-.41ZM26.865 39.714c.429.051.862-.061 1.207-.313.206-.278.306-.617.282-.958v-7.529c0-.43-.101-.723-.322-.86a2.95 2.95 0 0 0-1.127-.254v-.372h4.024l3.218 7.352h.141l3.259-7.352h4.123v.411a2.055 2.055 0 0 0-1.126.293c-.201.157-.302.548-.302 1.154v7.02a1.61 1.61 0 0 0 .302 1.153c.331.218.728.321 1.126.294v.41h-5.451v-.41c.382.004.761-.076 1.106-.235.242-.143.362-.456.362-.939v-7.821h-.12l-4.023 9.327h-.443l-4.023-9.151v7.176c-.036.407.071.813.302 1.154a1.78 1.78 0 0 0 1.347.41v.411h-3.822l-.04-.371ZM41.992 39.714c.343.008.683-.045 1.006-.157a1 1 0 0 0 .384-.411.97.97 0 0 0 .099-.547v-7.685a.949.949 0 0 0-.092-.534.989.989 0 0 0-.371-.404 2.82 2.82 0 0 0-1.026-.176v-.372h5.713v.411a2.884 2.884 0 0 0-1.066.176.98.98 0 0 0-.37.404.961.961 0 0 0-.093.535v7.684a.945.945 0 0 0 .383.9c.357.164.752.238 1.146.215v.41h-5.713v-.449Z" style="fill: rgb(29, 29, 27);" class="fills" data-testid="svg-path"/></g></svg>